<svg width="59" height="28" viewBox="0 0 59 28" fill="none" xmlns="http://www.w3.org/2000/svg">
<path d="M3.77131 21H0.475852L5.49716 6.45455H9.46023L14.4744 21H11.179L7.53551 9.77841H7.42188L3.77131 21ZM3.56534 15.2827H11.3494V17.6832H3.56534V15.2827ZM16.2269 21V10.0909H19.2525V21H16.2269ZM17.7468 8.68466C17.297 8.68466 16.9111 8.53551 16.5891 8.23722C16.2719 7.93419 16.1133 7.57197 16.1133 7.15057C16.1133 6.7339 16.2719 6.37642 16.5891 6.07812C16.9111 5.77509 17.297 5.62358 17.7468 5.62358C18.1966 5.62358 18.5801 5.77509 18.8974 6.07812C19.2193 6.37642 19.3803 6.7339 19.3803 7.15057C19.3803 7.57197 19.2193 7.93419 18.8974 8.23722C18.5801 8.53551 18.1966 8.68466 17.7468 8.68466ZM24.7017 6.45455V21H21.6761V6.45455H24.7017ZM32.0969 21.2131C30.9748 21.2131 30.0089 20.9858 29.1992 20.5312C28.3943 20.072 27.774 19.4233 27.3384 18.5852C26.9028 17.7424 26.685 16.7457 26.685 15.5952C26.685 14.473 26.9028 13.4882 27.3384 12.6406C27.774 11.7931 28.3872 11.1326 29.1779 10.6591C29.9734 10.1856 30.9061 9.94886 31.9762 9.94886C32.6959 9.94886 33.3659 10.0649 33.9862 10.2969C34.6112 10.5241 35.1557 10.8674 35.6197 11.3267C36.0884 11.786 36.453 12.3636 36.7134 13.0597C36.9738 13.7509 37.104 14.5606 37.104 15.4886V16.3196H27.8924V14.4446H34.256C34.256 14.009 34.1613 13.6231 33.9719 13.2869C33.7826 12.9508 33.5198 12.688 33.1836 12.4986C32.8522 12.3045 32.4663 12.2074 32.0259 12.2074C31.5666 12.2074 31.1594 12.3139 30.8043 12.527C30.454 12.7353 30.1793 13.017 29.9805 13.3722C29.7816 13.7225 29.6798 14.1132 29.6751 14.544V16.3267C29.6751 16.8665 29.7745 17.3329 29.9734 17.7259C30.177 18.1188 30.4634 18.4219 30.8327 18.6349C31.2021 18.848 31.64 18.9545 32.1467 18.9545C32.4828 18.9545 32.7906 18.9072 33.07 18.8125C33.3493 18.7178 33.5884 18.5758 33.7873 18.3864C33.9862 18.197 34.1377 17.965 34.2418 17.6903L37.0401 17.875C36.8981 18.5473 36.6069 19.1345 36.1665 19.6364C35.7309 20.1335 35.1675 20.5218 34.4762 20.8011C33.7897 21.0758 32.9966 21.2131 32.0969 21.2131ZM39.0785 21V10.0909H42.0117V11.9943H42.1254C42.3242 11.3172 42.658 10.8059 43.1268 10.4602C43.5955 10.1098 44.1353 9.93466 44.7461 9.93466C44.8976 9.93466 45.061 9.94413 45.2362 9.96307C45.4113 9.98201 45.5652 10.008 45.6978 10.0412V12.7259C45.5558 12.6832 45.3593 12.6454 45.1083 12.6122C44.8574 12.5791 44.6277 12.5625 44.4194 12.5625C43.9743 12.5625 43.5766 12.6596 43.2262 12.8537C42.8806 13.0431 42.6059 13.3082 42.4023 13.6491C42.2035 13.9901 42.104 14.383 42.104 14.8281V21H39.0785ZM50.2876 14.6932V21H47.2621V10.0909H50.1456V12.0156H50.2734C50.5149 11.3812 50.9197 10.8793 51.4879 10.5099C52.0561 10.1359 52.745 9.94886 53.5547 9.94886C54.3123 9.94886 54.9728 10.1146 55.5362 10.446C56.0997 10.7775 56.5376 11.2509 56.8501 11.8665C57.1626 12.4773 57.3189 13.2064 57.3189 14.054V21H54.2933V14.5938C54.2981 13.9261 54.1276 13.4053 53.782 13.0312C53.4363 12.6525 52.9605 12.4631 52.3544 12.4631C51.9472 12.4631 51.5874 12.5507 51.2749 12.7259C50.9671 12.901 50.7256 13.1567 50.5504 13.4929C50.38 13.8243 50.2924 14.2244 50.2876 14.6932Z" fill="#111827"/>
</svg>
