<svg width="148" height="56" viewBox="0 0 148 56" fill="none" xmlns="http://www.w3.org/2000/svg">
<path d="M25 16.75L38.7695 24.25V34.2695H36.25V25.5977L25 31.75L11.2305 24.25L25 16.75ZM16.2695 29.4648L25 34.2695L33.7305 29.4648V34.5039L25 39.25L16.2695 34.5039V29.4648Z" fill="#2563EB"/>
<path d="M53.7713 35H50.4759L55.4972 20.4545H59.4602L64.4744 35H61.179L57.5355 23.7784H57.4219L53.7713 35ZM53.5653 29.2827H61.3494V31.6832H53.5653V29.2827ZM66.2269 35V24.0909H69.2525V35H66.2269ZM67.7468 22.6847C67.297 22.6847 66.9111 22.5355 66.5891 22.2372C66.2719 21.9342 66.1133 21.572 66.1133 21.1506C66.1133 20.7339 66.2719 20.3764 66.5891 20.0781C66.9111 19.7751 67.297 19.6236 67.7468 19.6236C68.1966 19.6236 68.5801 19.7751 68.8974 20.0781C69.2193 20.3764 69.3803 20.7339 69.3803 21.1506C69.3803 21.572 69.2193 21.9342 68.8974 22.2372C68.5801 22.5355 68.1966 22.6847 67.7468 22.6847ZM74.7017 20.4545V35H71.6761V20.4545H74.7017ZM82.0969 35.2131C80.9748 35.2131 80.0089 34.9858 79.1992 34.5312C78.3943 34.072 77.774 33.4233 77.3384 32.5852C76.9028 31.7424 76.685 30.7457 76.685 29.5952C76.685 28.473 76.9028 27.4882 77.3384 26.6406C77.774 25.7931 78.3872 25.1326 79.1779 24.6591C79.9734 24.1856 80.9061 23.9489 81.9762 23.9489C82.6959 23.9489 83.3659 24.0649 83.9862 24.2969C84.6112 24.5241 85.1557 24.8674 85.6197 25.3267C86.0884 25.786 86.453 26.3636 86.7134 27.0597C86.9738 27.7509 87.104 28.5606 87.104 29.4886V30.3196H77.8924V28.4446H84.256C84.256 28.009 84.1613 27.6231 83.9719 27.2869C83.7826 26.9508 83.5198 26.688 83.1836 26.4986C82.8522 26.3045 82.4663 26.2074 82.0259 26.2074C81.5666 26.2074 81.1594 26.3139 80.8043 26.527C80.454 26.7353 80.1793 27.017 79.9805 27.3722C79.7816 27.7225 79.6798 28.1132 79.6751 28.544V30.3267C79.6751 30.8665 79.7745 31.3329 79.9734 31.7259C80.177 32.1188 80.4634 32.4219 80.8327 32.6349C81.2021 32.848 81.64 32.9545 82.1467 32.9545C82.4828 32.9545 82.7906 32.9072 83.07 32.8125C83.3493 32.7178 83.5884 32.5758 83.7873 32.3864C83.9862 32.197 84.1377 31.965 84.2418 31.6903L87.0401 31.875C86.8981 32.5473 86.6069 33.1345 86.1665 33.6364C85.7309 34.1335 85.1675 34.5218 84.4762 34.8011C83.7897 35.0758 82.9966 35.2131 82.0969 35.2131ZM89.0785 35V24.0909H92.0117V25.9943H92.1254C92.3242 25.3172 92.658 24.8059 93.1268 24.4602C93.5955 24.1098 94.1353 23.9347 94.7461 23.9347C94.8976 23.9347 95.061 23.9441 95.2362 23.9631C95.4113 23.982 95.5652 24.008 95.6978 24.0412V26.7259C95.5558 26.6832 95.3593 26.6454 95.1083 26.6122C94.8574 26.5791 94.6277 26.5625 94.4194 26.5625C93.9743 26.5625 93.5766 26.6596 93.2262 26.8537C92.8806 27.0431 92.6059 27.3082 92.4023 27.6491C92.2035 27.9901 92.104 28.383 92.104 28.8281V35H89.0785ZM100.288 28.6932V35H97.2621V24.0909H100.146V26.0156H100.273C100.515 25.3812 100.92 24.8793 101.488 24.5099C102.056 24.1359 102.745 23.9489 103.555 23.9489C104.312 23.9489 104.973 24.1146 105.536 24.446C106.1 24.7775 106.538 25.2509 106.85 25.8665C107.163 26.4773 107.319 27.2064 107.319 28.054V35H104.293V28.5938C104.298 27.9261 104.128 27.4053 103.782 27.0312C103.436 26.6525 102.96 26.4631 102.354 26.4631C101.947 26.4631 101.587 26.5507 101.275 26.7259C100.967 26.901 100.726 27.1567 100.55 27.4929C100.38 27.8243 100.292 28.2244 100.288 28.6932Z" fill="#111827"/>
</svg>
